# xmcd CD database file
#
# Track frame offsets:
#	150
#	16087
#	39455
#	61115
#	72370
#	85485
#	99010
#	119017
#	128502
#	144852
#	161412
#	179022
#	193530
#	206910
#
# Disc length: 2902 seconds
#
# Revision: 2
# Processed by: cddbd v1.5.2PL0 Copyright (c) Steve Scherf et al.
# Submitted via: CDex 1.70beta2
#
DISCID=ba0b540e
DTITLE=Various Artist - Deutsche Trucker Hits
DYEAR=0
DGENRE=Country
TTITLE0=Truck Stop - Ich möcht' so gern Dave Dudley hör'n
TTITLE1=Gunter Gabriel - Hey Boss,ich brauch mehr Geld
TTITLE2=Jonny Hill - Ruf' Teddybär eins-vier
TTITLE3=Freddy Quinn - Jambalaya
TTITLE4=Western Union - Highway Driver 59
TTITLE5=Western Union and Larry Schuba - Frei wie die Adler
TTITLE6=Torfrock - Beinhart
TTITLE7=Daliah Lavi - Schalt' dein Radio ein
TTITLE8=Volker Lechtenbrink - Leben,so wie ich es mag
TTITLE9=The Tennessee Stars - Tom Dooley
TTITLE10=Tom Astor - Lucille
TTITLE11=Gunter Gabriel and Manfred Krug - Hallo Dortmund
TTITLE12=Truck Stop - Take It Easy altes Haus
TTITLE13=Tom Astor and Larry Schuba - Zwei Trucker wie wir
EXTD=
EXTT0=
EXTT1=
EXTT2=
EXTT3=
EXTT4=
EXTT5=
EXTT6=
EXTT7=
EXTT8=
EXTT9=
EXTT10=
EXTT11=
EXTT12=
EXTT13=
PLAYORDER=
